<?xml version="1.0" encoding="UTF-8"?>
<svg width="328px" height="328px" viewBox="0 0 328 328" version="1.1" xmlns="http://www.w3.org/2000/svg" xmlns:xlink="http://www.w3.org/1999/xlink">
    <!-- Generator: Sketch 45.2 (43514) - http://www.bohemiancoding.com/sketch -->
    <title>td_logo</title>
    <desc>Created with Sketch.</desc>
    <defs></defs>
    <g id="Page-1" stroke="none" stroke-width="1" fill="none" fill-rule="evenodd">
        <g id="td_logo" transform="translate(5.000000, 5.000000)">
            <g id="Group" transform="translate(0.468312, 0.000000)">
                <g>
                    <g>
                        <path d="M251.542345,317.162088 L65.6197423,317.162088 C29.3812396,317.162088 0,287.780848 0,251.542345 L0,65.6197423 C0,29.3812396 29.3812396,0 65.6197423,0 L251.542345,0 C287.780848,0 317.162088,29.3812396 317.162088,65.6197423 L317.162088,251.542345 C317.162088,287.780848 287.780848,317.162088 251.542345,317.162088 L251.542345,317.162088 Z" id="Shape" stroke="#FDFDFD" stroke-width="10"></path>
                        <text id="TD" font-family="Helvetica-Condensed, Helvetica" font-size="144" font-style="condensed" font-weight="500" fill="#FDFDFD">
                            <tspan x="78.508" y="217">TD</tspan>
                        </text>
                        <path d="M263,226.302861 C272.066461,226.302861 279.404936,218.964386 279.404936,209.897925 L279.404936,182.556366 L295.853618,166.15143 L279.404936,149.746495 L279.404936,122.404936 C279.404936,113.338475 272.066461,106 263,106" id="Shape" stroke="#FDFDFD" stroke-width="5"></path>
                        <path d="M55.8098711,226.302861 C46.7434101,226.302861 39.4049356,218.964386 39.4049356,209.897925 L39.4049356,182.556366 L23,166.15143 L39.4049356,149.746495 L39.4049356,122.404936 C39.4049356,113.338475 46.7434101,106 55.8098711,106" id="Shape" stroke="#FDFDFD" stroke-width="5"></path>
                    </g>
                </g>
            </g>
        </g>
    </g>
</svg>