<?xml version="1.0" encoding="iso-8859-1"?>
<!-- Generator: Adobe Illustrator 16.0.0, SVG Export Plug-In . SVG Version: 6.00 Build 0)  -->
<!DOCTYPE svg PUBLIC "-//W3C//DTD SVG 1.1//EN" "http://www.w3.org/Graphics/SVG/1.1/DTD/svg11.dtd">
<svg version="1.1" id="Layer_1" xmlns="http://www.w3.org/2000/svg" xmlns:xlink="http://www.w3.org/1999/xlink" x="0px" y="0px"
	 width="2834.65px" height="2834.649px" viewBox="49.605 0 2834.65 2834.649"
	 style="enable-background:new 49.605 0 2834.65 2834.649;" xml:space="preserve">
<circle style="fill:#828282;" cx="1466.93" cy="1417.324" r="1417.324"/>
<path style="fill:#FFFFFF;" d="M1892.128,726.379h-850.395c-147.639,0-265.749,118.11-265.749,265.749v283.465v566.929
	c0,147.639,118.11,265.748,265.749,265.748h850.395c147.638,0,265.749-118.109,265.749-265.748v-566.929V992.127
	C2157.877,844.489,2039.765,726.379,1892.128,726.379z M1968.9,885.828h29.527v29.527v206.693h-236.221V885.828H1968.9z
	 M1272.049,1275.593c41.338-59.056,118.11-100.395,194.882-100.395s153.544,41.339,194.882,100.395
	c29.527,41.338,47.244,88.582,47.244,141.732c0,135.826-112.205,242.126-242.126,242.126
	c-129.922,0-242.126-106.299-242.126-242.126C1224.804,1364.175,1242.521,1316.931,1272.049,1275.593z M2022.05,1842.522
	c0,70.867-59.056,129.922-129.922,129.922h-850.395c-70.866,0-129.922-59.055-129.922-129.922v-566.929h206.693
	c-17.717,41.338-29.527,94.488-29.527,141.732c0,206.693,171.26,377.953,377.953,377.953s377.953-171.26,377.953-377.953
	c0-47.244-11.812-100.395-29.527-141.732h206.692L2022.05,1842.522L2022.05,1842.522z"/>
</svg>
